<?xml version="1.0" encoding="utf-8"?>
<!-- Generator: Adobe Illustrator 25.4.1, SVG Export Plug-In . SVG Version: 6.00 Build 0)  -->
<svg version="1.2" baseProfile="tiny" id="Capa_1" xmlns="http://www.w3.org/2000/svg" xmlns:xlink="http://www.w3.org/1999/xlink"
	 x="0px" y="0px" viewBox="0 0 274.7 424.6" overflow="visible" xml:space="preserve">
<path d="M271.4,386.1c-25,38.5-133.4,38.6-134,38.6c0,0,0,0,0,0s0,0,0,0c-0.7,0-109.1-0.1-134-38.6c-16.8-27.2,34.2-194,72-190
	c14.1,7.6,32.5,20.3,62,20.3s48-12.7,62-20.3C237.2,192.1,288.1,358.9,271.4,386.1z M137.3,204.8c57.3,0,93.6-64.9,67-110.6
	c-1.9-3.2-19.6,11.9-67,11.9c-47.4,0-65.2-15.1-67-11.9C43.7,139.8,80.1,204.8,137.3,204.8z M71.8,79.5c0.3,1.6,1.3,2.9,2.8,3.6
	c41.9,18,83.8,17.9,125.8,0c1.5-0.6,2.5-2,2.8-3.6l9.5-58.4c0.7-4.1-3.8-7-7.3-4.7l-34,22.2c-2.2,1.4-5.1,0.8-6.6-1.4L141.6,2.1
	c-1.9-2.8-6-2.8-7.9,0L110,37.4c-1.5,2.2-4.4,2.8-6.6,1.3L69.2,16.4c-3.5-2.3-8,0.7-7.3,4.8L71.8,79.5z"/>
</svg>
