<?xml version="1.0" encoding="utf-8"?>
<!-- Generator: Adobe Illustrator 25.4.1, SVG Export Plug-In . SVG Version: 6.00 Build 0)  -->
<svg version="1.2" baseProfile="tiny" xmlns="http://www.w3.org/2000/svg" xmlns:xlink="http://www.w3.org/1999/xlink" x="0px"
	 y="0px" viewBox="0 0 488.1 424.6" overflow="visible" xml:space="preserve">
<g id="Capa_1">
	<path fill="#231F20" d="M378.1,386.1c-25,38.5-133.4,38.6-134,38.6l0,0c0,0,0,0,0,0s0,0,0,0l0,0c-0.7,0-109.1-0.1-134-38.6
		c-16.8-27.2,34.2-194,72-190c14.1,7.6,32.5,20.3,62,20.3s48-12.7,62-20.3C343.9,192.1,394.9,358.9,378.1,386.1z M311.1,94.2
		c-1.9-3.2-19.6,11.9-67,11.9S178.9,91,177,94.2c-26.6,45.7,9.8,110.6,67,110.6S337.6,139.8,311.1,94.2z M210.1,38.7l-34.2-22.3
		c-3.5-2.3-8,0.7-7.3,4.8l9.9,58.3c0.3,1.6,1.3,2.9,2.8,3.6c41.9,18,83.8,17.9,125.8,0c1.5-0.6,2.5-2,2.8-3.6l9.5-58.4
		c0.7-4.1-3.8-7-7.3-4.7l-34,22.2c-2.2,1.4-5.1,0.8-6.6-1.4L248.3,2.1c-1.9-2.8-6-2.8-7.9,0l-23.7,35.3
		C215.2,39.6,212.3,40.1,210.1,38.7z M350.1,223.1c-13.4-24.1-26.5-36.5-40-37.9c12.1-14.2,19.7-32.4,20.5-52.4
		c0.9-0.1,1.7-0.2,2.6-0.1c10.9,5.9,25.3,15.8,48.2,15.8s37.3-9.9,48.2-15.8c29.4-3.1,69,126.5,56,147.6
		c-17.7,27.3-89.5,29.7-102.2,29.9C375.1,278.1,362.8,245.9,350.1,223.1z M440.1,80.7c0-32.5-26.3-58.8-58.8-58.8
		s-58.8,26.3-58.8,58.8c0,32.5,26.3,58.8,58.8,58.8S440.1,113.2,440.1,80.7z M104.8,310.3c-12.7-0.2-84.5-2.6-102.2-29.9
		c-13-21.1,26.6-150.7,56-147.6c10.9,5.9,25.3,15.8,48.2,15.8s37.3-9.9,48.2-15.8c0.9-0.1,1.7-0.1,2.6,0.1
		c0.8,19.9,8.4,38.1,20.5,52.4c-13.5,1.4-26.6,13.9-40,37.9C125.3,245.9,113,278.1,104.8,310.3z M106.7,139.5
		c32.5,0,58.8-26.3,58.8-58.8c0-32.5-26.3-58.8-58.8-58.8S48,48.3,48,80.7C48,113.2,74.3,139.5,106.7,139.5z"/>
</g>
<g id="Layer_4" display="none">
	<path fill="#231F20" d="M378.1,386.1c-25,38.5-133.4,38.6-134,38.6l0,0c0,0,0,0,0,0s0,0,0,0l0,0c-0.7,0-109.1-0.1-134-38.6
		c-16.8-27.2,34.2-194,72-190c14.1,7.6,32.5,20.3,62,20.3s48-12.7,62-20.3C343.9,192.1,394.9,358.9,378.1,386.1z M319.7,129.2
		c0-41.8-33.9-75.6-75.6-75.6s-75.6,33.9-75.6,75.6s33.9,75.6,75.6,75.6S319.7,170.9,319.7,129.2z"/>
</g>
<g id="Layer_3" display="none">
</g>
</svg>
