<?xml version="1.0" encoding="utf-8"?>
<!-- Generator: Adobe Illustrator 25.4.1, SVG Export Plug-In . SVG Version: 6.00 Build 0)  -->
<svg version="1.2" baseProfile="tiny" id="Layer_1" xmlns="http://www.w3.org/2000/svg" xmlns:xlink="http://www.w3.org/1999/xlink"
	 x="0px" y="0px" viewBox="0 0 67.1 67.3" overflow="visible" xml:space="preserve">
<path d="M27.8,66.8L4.4,55C2,53.7,0,50.5,0,47.8V21c0-2.8,2-4,4.4-2.8l23.5,11.9c2.4,1.2,4.4,4.4,4.4,7.2v26.7
	C32.2,66.8,30.2,68.1,27.8,66.8z M17.7,47v-0.3c0-1.2,0.4-2,1.4-2.6c1.8-1,2.4-2,2.4-3.8c0-2.2-1.2-5.9-5.4-8.1
	c-4.2-2.2-5.6,0.5-5.7,2.8l3.6,1.8c0.1-1.3,0.6-2.2,2-1.5c1.2,0.6,1.8,1.8,1.8,2.9c0,1-0.3,1.7-1.4,2.3c-1.9,1-2.6,2-2.6,4v0.5
	L17.7,47z M17.7,53.3v-4.8l-3.8-1.9v4.8L17.7,53.3z"/>
<path d="M62.7,55L39.3,66.8c-2.4,1.2-4.4,0-4.4-2.8V37.3c0-2.8,2-6,4.4-7.2l23.5-11.9c2.4-1.2,4.4,0,4.4,2.8v26.7
	C67.1,50.5,65.1,53.7,62.7,55z M52.6,45.4v-0.3c0-1.2,0.4-2.3,1.4-4c1.8-2.9,2.4-4.4,2.4-6.2c0-2.2-1.2-4.7-5.4-2.6
	c-4.2,2.1-5.6,6.1-5.7,8.6l3.6-1.8c0.1-1.5,0.6-2.8,2-3.6c1.2-0.6,1.8,0,1.8,1.1c0,1-0.3,2-1.4,3.7c-1.9,2.9-2.6,4.6-2.6,6.6v0.5
	L52.6,45.4z M52.6,51.7v-4.8l-3.8,1.9v4.8L52.6,51.7z"/>
<path d="M61.8,15.5L36.3,27.7c-1.6,0.8-4.2,0.8-5.8,0L5,15.5c-1.6-0.8-1.6-2,0-2.8L30.5,0.6c1.6-0.8,4.2-0.8,5.8,0l25.5,12.2
	C63.4,13.5,63.4,14.8,61.8,15.5z M38.1,14.9l-0.3-0.1c-1-0.5-1.5-1-1.4-2c0.1-1.6-0.4-2.4-2-3.1C32.5,8.7,28.7,8,24.6,10
	c-4.1,1.9-2.6,3.9-0.7,5l3.5-1.7c-1.1-0.6-1.5-1.3-0.2-2c1.2-0.6,2.5-0.5,3.4,0c0.9,0.4,1.3,0.9,1.2,1.8c-0.2,1.7,0.4,2.5,2,3.3
	l0.5,0.2L38.1,14.9z M43.4,17.5l-4.1-2l-3.7,1.8l4.1,2L43.4,17.5z"/>
</svg>
