<?xml version="1.0" encoding="utf-8"?>
<!-- Generator: Adobe Illustrator 25.4.1, SVG Export Plug-In . SVG Version: 6.00 Build 0)  -->
<svg version="1.2" baseProfile="tiny" xmlns="http://www.w3.org/2000/svg" xmlns:xlink="http://www.w3.org/1999/xlink" x="0px"
	 y="0px" viewBox="0 0 488.1 402.6" overflow="visible" xml:space="preserve">
<g id="Capa_1" display="none">
	<path display="inline" d="M306.1,174.1c-14.1,7.6-32.5,20.3-62,20.3s-48-12.7-62-20.3c-37.8-4-88.8,162.8-72,190
		c25,38.5,133.4,38.6,134,38.6l0,0c0,0,0,0,0,0s0,0,0,0l0,0c0.7,0,109.1-0.1,134-38.6C394.9,336.9,343.9,170.1,306.1,174.1z"/>
	<path d="M311.1,72.2c-1.9-3.2-19.6,11.9-67,11.9S178.9,69,177,72.2c-26.6,45.7,9.8,110.6,67,110.6S337.6,117.9,311.1,72.2z"/>
	<path d="M216.7,15.4l23.7-35.3c1.9-2.8,6-2.8,7.9,0l23.2,35.1c1.4,2.2,4.4,2.8,6.6,1.4l34-22.2c3.5-2.3,8,0.7,7.3,4.7L310,57.5
		c-0.3,1.6-1.3,3-2.8,3.6c-42,17.9-84,18-125.8,0c-1.5-0.6-2.5-2-2.8-3.6l-9.9-58.3c-0.7-4.1,3.8-7.1,7.3-4.8l34.2,22.3
		C212.3,18.2,215.2,17.6,216.7,15.4z"/>
</g>
<g id="Layer_4">
	<path fill="#231F20" d="M350.1,201.1c-13.4-24.1-26.5-36.5-40-37.9c12.1-14.2,19.7-32.4,20.5-52.4c0.9-0.1,1.7-0.2,2.6-0.1
		c10.9,5.9,25.3,15.8,48.2,15.8s37.3-9.9,48.2-15.8c29.4-3.1,69,126.5,56,147.6c-17.7,27.3-89.5,29.7-102.2,29.9
		C375.1,256.2,362.8,223.9,350.1,201.1z M440.1,58.8c0-32.5-26.3-58.8-58.8-58.8s-58.8,26.3-58.8,58.8c0,32.5,26.3,58.8,58.8,58.8
		S440.1,91.2,440.1,58.8z M104.8,288.3c-12.7-0.2-84.5-2.6-102.2-29.9c-13-21.1,26.6-150.7,56-147.6c10.9,5.9,25.3,15.8,48.2,15.8
		s37.3-9.9,48.2-15.8c0.9-0.1,1.7-0.1,2.6,0.1c0.8,19.9,8.4,38.1,20.5,52.4c-13.5,1.4-26.6,13.9-40,37.9
		C125.3,223.9,113,256.2,104.8,288.3z M106.7,117.5c32.5,0,58.8-26.3,58.8-58.8c0-32.5-26.3-58.8-58.8-58.8S48,26.3,48,58.8
		C48,91.2,74.3,117.5,106.7,117.5z M378.1,364.1c-25,38.5-133.4,38.6-134,38.6l0,0c0,0,0,0,0,0s0,0,0,0l0,0
		c-0.7,0-109.1-0.1-134-38.6c-16.8-27.2,34.2-194,72-190c14.1,7.6,32.5,20.3,62,20.3s48-12.7,62-20.3
		C343.9,170.1,394.9,336.9,378.1,364.1z M319.7,107.2c0-41.8-33.9-75.6-75.6-75.6s-75.6,33.9-75.6,75.6s33.9,75.6,75.6,75.6
		S319.7,149,319.7,107.2z"/>
</g>
<g id="Layer_3">
</g>
</svg>
