<?xml version="1.0" encoding="utf-8"?>
<!-- Generator: Adobe Illustrator 26.0.2, SVG Export Plug-In . SVG Version: 6.00 Build 0)  -->
<svg version="1.2" baseProfile="tiny" xmlns="http://www.w3.org/2000/svg" xmlns:xlink="http://www.w3.org/1999/xlink" x="0px"
	 y="0px" viewBox="0 0 246.3 246.3" overflow="visible" xml:space="preserve">
<g id="Layer_2">
	<path display="none" fill="#1A1A1A" d="M164,22.6H82.3c-11.2,0-21.6,6-27.2,15.7l-40.7,70.2c-5.6,9.7-5.6,21.8,0,31.5l40.7,70.2
		c5.6,9.7,16,15.7,27.2,15.7H164c11.2,0,21.6-6,27.2-15.7l40.7-70.2c5.6-9.7,5.6-21.8,0-31.5l-40.7-70.2
		C185.5,28.6,175.2,22.6,164,22.6z"/>
	<path fill="#1A1A1A" d="M218.6,50.8L139,4.8c-9.7-5.6-21.6-5.6-31.4,0L28.4,50.4c-9.8,5.6-15.8,16-15.8,27.3l0.2,91.4
		c0,11.2,6,21.5,15.7,27.1l79.6,46c9.7,5.6,21.6,5.6,31.4,0l79.2-45.5c9.8-5.6,15.8-16,15.8-27.3l-0.2-91.4
		C234.3,66.7,228.3,56.4,218.6,50.8z"/>
</g>
<g id="Layer_1">
	<g>
		<path fill="#E6E6E6" d="M151.7,78.7h35.9c2.5,0,4.8,1.3,6,3.5l1,1.7c2.7,4.7-0.7,10.5-6,10.5h-35.9c-2.5,0-4.8-1.3-6-3.5l-1-1.7
			C142.9,84.5,146.3,78.7,151.7,78.7z"/>
		<path fill="#E6E6E6" d="M157,164.9l-8.3-14.4c-1.2-2.2-3.5-3.5-6-3.5h-38.9c-2.5,0-4.8,1.3-6,3.5l-8.3,14.4
			c-1.2,2.2-3.5,3.5-6,3.5h0c-5.3,0-8.7-5.7-6.1-10.4l40.1-72c2.7-4.8,9.5-4.8,12.2,0l40,72c2.6,4.6-0.8,10.4-6.1,10.4H163
			C160.6,168.4,158.2,167.1,157,164.9z M122.9,115.2c-5.4,0-9.7,4.4-9.7,9.7c0,5.4,4.4,9.7,9.7,9.7c5.4,0,9.7-4.4,9.7-9.7
			C132.7,119.6,128.3,115.2,122.9,115.2z"/>
		<path fill="#E6E6E6" d="M51.5,83.9l1-1.7c1.2-2.2,3.5-3.5,6-3.5h36.9c5.4,0,8.7,5.8,6,10.5l-1,1.7c-1.2,2.2-3.5,3.5-6,3.5H57.6
			C52.2,94.4,48.9,88.6,51.5,83.9z"/>
		<path fill="#E6E6E6" d="M51.7,168.4h-1.1c-5.4,0-8.7-5.8-6-10.5l13.8-23.9c2.7-4.7-0.7-10.5-6-10.5H40.7c-5.4,0-8.7-5.8-6-10.5
			l0.2-0.3c1.2-2.2,3.5-3.5,6-3.5h36.9c5.4,0,8.7,5.8,6,10.5l-26,45.1C56.5,167.1,54.2,168.4,51.7,168.4z"/>
		<path fill="#E6E6E6" d="M169,109.3h36.9c2.5,0,4.8,1.3,6,3.5l0.2,0.3c2.7,4.7-0.7,10.5-6,10.5h-11.6c-5.4,0-8.7,5.8-6,10.5
			l13.8,23.9c2.7,4.7-0.7,10.5-6,10.5H195c-2.5,0-4.8-1.3-6-3.5l-26-45.1C160.3,115.2,163.6,109.3,169,109.3z"/>
	</g>
</g>
</svg>
